<?xml version="1.0" standalone="no"?>
<!DOCTYPE svg PUBLIC "-//W3C//DTD SVG 20010904//EN"
 "http://www.w3.org/TR/2001/REC-SVG-20010904/DTD/svg10.dtd">
<svg version="1.0" xmlns="http://www.w3.org/2000/svg"
 width="934.000000pt" height="934.000000pt" viewBox="0 0 934.000000 934.000000"
 preserveAspectRatio="xMidYMid meet">
<metadata>
Created by potrace 1.14, written by Peter Selinger 2001-2017
</metadata>
<g transform="translate(0.000000,934.000000) scale(0.100000,-0.100000)"
fill="#000000" stroke="none">
<path d="M4087 8304 c-3 -4 -37 -8 -74 -10 -38 -2 -90 -6 -118 -9 -27 -3 -66
-8 -85 -10 -103 -12 -414 -80 -435 -95 -5 -4 -22 -10 -37 -14 -15 -3 -40 -11
-55 -18 -15 -6 -36 -13 -46 -15 -10 -1 -36 -12 -57 -23 -22 -11 -40 -18 -40
-16 0 2 -27 -9 -60 -25 -33 -16 -65 -29 -70 -29 -6 0 -10 -4 -10 -10 0 -5 -6
-10 -14 -10 -19 0 -169 -87 -280 -162 -99 -67 -94 -64 -151 -113 -22 -19 -43
-35 -46 -35 -4 0 -34 -26 -68 -58 -34 -32 -61 -57 -61 -55 0 13 -238 -247
-280 -307 -14 -19 -33 -43 -44 -55 -10 -11 -49 -65 -87 -120 -38 -55 -73 -105
-78 -111 -5 -6 -16 -25 -25 -42 -9 -17 -29 -50 -45 -74 -15 -24 -43 -70 -61
-103 -18 -33 -36 -65 -41 -71 -16 -20 -187 -370 -244 -499 -31 -71 -63 -144
-71 -162 -8 -17 -14 -34 -14 -37 0 -3 -11 -29 -24 -58 -13 -29 -43 -105 -66
-168 -24 -63 -48 -128 -55 -145 -11 -26 -32 -86 -42 -120 -1 -5 -27 -84 -58
-174 -30 -91 -57 -174 -60 -185 -2 -12 -19 -68 -36 -126 -17 -58 -32 -112 -34
-120 -2 -8 -4 -15 -5 -15 -1 0 -3 -8 -5 -19 -2 -10 -9 -41 -16 -70 -7 -28 -14
-54 -15 -58 -1 -5 -2 -9 -3 -10 -2 -2 -4 -14 -7 -27 -2 -13 -15 -72 -29 -131
-14 -59 -27 -124 -31 -145 -3 -21 -10 -48 -14 -61 -5 -12 -7 -24 -4 -27 2 -2
0 -16 -6 -31 -7 -20 -7 -25 1 -20 8 4 8 1 1 -12 -10 -20 -17 -56 -28 -139 -3
-27 -8 -53 -10 -56 -1 -3 -6 -37 -10 -75 -3 -38 -8 -78 -11 -89 -2 -11 -6 -48
-7 -81 -2 -34 -5 -65 -8 -70 -2 -5 -4 -35 -4 -66 1 -32 -1 -58 -4 -58 -8 0 -6
-397 2 -405 4 -4 3 -18 -2 -31 -5 -13 -6 -24 -2 -24 4 0 8 -17 8 -38 3 -71 12
-147 19 -164 4 -10 5 -23 2 -30 -2 -7 0 -24 5 -38 6 -14 12 -38 13 -55 4 -30
12 -70 15 -70 1 0 4 -13 6 -30 3 -16 7 -37 11 -45 3 -8 7 -17 7 -20 1 -3 4 -9
7 -15 4 -5 5 -18 4 -27 -2 -10 1 -18 6 -18 5 0 9 -8 9 -18 0 -10 5 -23 12 -30
7 -7 9 -12 5 -12 -4 0 -2 -10 5 -22 7 -13 13 -26 14 -30 1 -5 3 -10 4 -13 1
-3 3 -8 4 -12 1 -5 12 -27 24 -49 11 -23 18 -45 14 -49 -4 -5 -1 -5 6 -1 7 4
12 1 12 -8 0 -9 5 -16 11 -16 5 0 8 -4 4 -9 -3 -5 2 -16 10 -24 8 -9 15 -20
15 -26 0 -6 5 -11 10 -11 6 0 10 -7 10 -15 0 -8 4 -15 9 -15 5 0 12 -8 15 -18
3 -10 24 -38 47 -62 22 -25 50 -57 62 -72 12 -15 25 -28 29 -28 3 0 24 -16 45
-35 21 -20 45 -42 54 -50 9 -8 19 -15 23 -15 4 0 16 -9 28 -20 12 -11 28 -20
35 -20 7 0 13 -4 13 -8 0 -5 16 -14 35 -22 19 -8 35 -17 35 -22 0 -4 10 -8 23
-8 13 0 29 -6 35 -12 7 -7 16 -13 20 -14 4 -1 23 -7 42 -15 19 -7 38 -12 43
-11 4 1 7 -3 7 -9 0 -5 4 -7 10 -4 5 3 18 1 28 -4 11 -6 30 -12 43 -15 13 -3
42 -10 63 -15 22 -5 44 -8 48 -5 4 3 8 1 8 -4 0 -5 6 -9 13 -10 6 0 29 -2 50
-3 20 -1 37 -5 37 -8 0 -3 25 -6 55 -6 30 0 55 -4 55 -9 0 -5 7 -3 15 4 9 7
15 8 15 2 0 -6 13 -7 35 -2 21 5 35 4 35 -2 0 -5 6 -6 13 -1 6 4 24 8 39 8 15
0 30 4 34 8 4 4 13 2 21 -4 7 -6 13 -7 13 -2 0 5 8 9 18 10 9 1 31 5 47 8 17
4 38 7 48 7 9 -1 17 2 17 6 0 4 10 8 23 9 23 2 62 10 62 13 0 2 20 7 60 15 17
3 34 10 39 16 6 5 20 9 31 9 12 0 25 3 29 7 8 8 32 14 63 17 11 0 19 4 17 7
-2 4 5 9 15 12 12 3 45 -12 87 -40 57 -37 241 -132 319 -163 25 -11 145 -51
165 -56 8 -2 39 -10 68 -18 28 -8 52 -12 52 -10 0 3 9 0 19 -6 11 -5 37 -12
58 -14 21 -3 49 -7 63 -11 24 -6 44 -8 143 -20 166 -20 457 -26 457 -10 0 6 3
5 8 -1 4 -6 16 -10 27 -8 11 2 58 6 105 9 78 5 125 11 125 15 0 3 48 7 165 13
58 4 121 8 140 11 19 3 60 7 90 11 30 3 71 8 90 11 19 2 49 6 65 8 17 2 44 6
60 10 17 3 44 8 60 11 17 3 41 7 55 10 14 3 41 8 60 11 19 3 37 7 40 9 3 2 24
6 46 9 22 4 49 8 59 10 98 19 173 17 266 -7 114 -30 320 -74 381 -82 23 -3 50
-7 58 -10 17 -4 100 -16 150 -21 19 -1 35 -4 35 -4 0 -4 183 -20 285 -26 47
-2 119 -9 160 -14 95 -14 297 -11 329 4 22 10 47 32 88 80 7 8 19 37 29 65 35
108 -1 220 -106 326 -68 70 -130 128 -130 121 0 -3 -10 5 -23 17 -38 36 -67
57 -77 57 -6 0 -10 3 -10 8 0 4 -18 18 -40 32 -22 14 -40 28 -40 32 0 5 -5 8
-10 8 -6 0 -34 17 -63 38 -29 21 -92 67 -142 102 -49 35 -91 68 -93 72 -2 4
-10 8 -17 8 -7 0 -15 3 -17 8 -1 4 -57 51 -124 104 -160 128 -462 427 -446
442 3 3 1 6 -5 6 -14 0 -128 152 -233 310 -19 28 -46 99 -56 145 -13 59 -12
309 1 385 7 41 16 91 20 110 28 158 90 340 176 515 88 180 178 318 287 440
l36 39 95 2 c53 1 119 4 146 8 28 3 73 8 100 12 108 13 411 94 467 125 10 5
22 9 28 9 9 0 45 14 145 60 22 10 50 21 63 25 12 3 22 11 22 16 0 5 3 8 8 7 8
-2 84 33 92 43 3 3 25 16 50 30 25 13 50 29 57 34 7 6 18 15 26 21 7 6 23 17
35 23 13 7 19 17 16 23 -4 6 -3 8 3 5 11 -7 70 42 66 55 -2 4 1 8 7 8 15 0 50
33 50 47 0 7 4 13 10 13 5 0 9 3 9 8 -3 19 2 33 11 27 13 -8 13 1 -1 27 -9 16
-8 19 2 13 8 -6 11 -4 6 7 -3 9 0 21 6 28 9 9 9 11 1 7 -7 -4 -15 1 -19 11
-12 27 -14 43 -4 36 5 -3 9 -1 9 5 0 5 -9 13 -21 16 -16 5 -18 9 -8 21 10 12
9 13 -7 8 -10 -4 -16 -4 -12 1 8 8 -15 35 -31 35 -5 0 -12 8 -16 18 -3 11 -17
24 -30 30 -14 6 -25 16 -25 22 0 5 -7 10 -15 10 -8 0 -23 9 -32 20 -10 11 -23
20 -30 20 -7 0 -13 5 -13 11 0 5 -4 8 -9 4 -5 -3 -17 2 -26 11 -14 15 -14 18
10 42 26 25 59 118 58 160 0 12 3 22 7 22 4 0 5 12 2 26 -3 18 -1 25 6 20 5
-3 9 0 7 6 -10 43 -18 57 -29 51 -6 -4 -4 2 4 12 9 11 10 16 3 11 -9 -5 -13
-1 -13 13 0 10 -5 21 -10 23 -6 2 -12 13 -13 25 0 12 -4 20 -8 17 -4 -2 -14 7
-23 20 -21 33 -65 76 -76 76 -6 0 -9 3 -9 8 3 19 -2 33 -11 27 -5 -3 -10 -2
-10 4 0 5 -9 13 -20 16 -11 3 -20 14 -20 22 0 9 -3 14 -6 10 -3 -3 -11 -1 -18
4 -47 40 -61 49 -79 55 -15 5 -17 8 -6 15 10 6 8 9 -9 9 -12 0 -30 9 -39 20
-10 11 -25 20 -35 20 -10 0 -18 3 -18 8 0 4 -9 13 -21 20 -17 11 -20 11 -14 0
3 -7 0 -5 -8 4 -8 10 -17 15 -20 11 -4 -3 -7 -2 -7 3 0 6 -16 16 -35 24 -19 8
-35 18 -35 22 0 5 -5 6 -10 3 -6 -3 -17 1 -26 9 -9 9 -20 14 -25 11 -5 -4 -9
-1 -9 4 0 6 -3 10 -7 9 -9 -1 -52 15 -97 38 -16 8 -35 14 -43 14 -7 0 -21 4
-31 9 -38 21 -100 45 -152 62 l-55 17 43 18 c28 13 40 24 37 33 -4 11 -3 12
10 1 12 -10 15 -10 15 4 0 9 7 19 15 22 8 4 15 12 15 20 0 8 5 14 11 14 5 0 7
5 4 10 -3 6 0 13 9 16 8 3 13 14 11 25 -3 12 0 17 7 13 7 -5 9 2 6 19 -3 15
-2 24 2 22 12 -7 19 20 10 36 -5 7 -5 18 0 24 14 17 12 26 -7 42 -17 14 -17
14 1 8 19 -6 19 -5 2 14 -10 11 -15 25 -10 32 5 8 3 10 -6 4 -10 -6 -12 -4 -7
9 4 9 3 14 -2 11 -5 -3 -12 4 -16 15 -4 11 -11 18 -16 15 -5 -3 -6 0 -3 8 3 8
-2 20 -10 27 -9 7 -13 16 -10 21 3 5 2 9 -3 8 -21 -4 -32 3 -38 21 -3 11 -13
20 -21 20 -8 0 -12 5 -9 10 3 6 2 10 -3 10 -5 0 -31 20 -57 45 -48 46 -221
164 -330 225 -131 73 -344 178 -349 173 -3 -4 -6 -2 -6 3 0 11 -68 41 -82 37
-4 -2 -8 1 -8 6 0 8 -7 11 -45 20 -5 2 -21 9 -35 16 -32 17 -63 29 -72 27 -5
-1 -8 2 -8 8 0 5 -7 7 -15 4 -8 -4 -15 -2 -15 4 0 8 -33 18 -77 24 -7 1 -13 6
-13 11 0 6 -3 8 -6 5 -3 -4 -22 1 -42 9 -20 8 -38 15 -39 14 -2 0 -4 -1 -5 0
-10 3 -46 10 -60 11 -10 1 -18 5 -18 9 0 4 -12 9 -27 11 -16 3 -37 9 -47 13
-15 7 -17 5 -11 -6 7 -12 6 -12 -7 -1 -14 11 -111 36 -188 47 -14 2 -41 6 -60
9 -19 3 -46 8 -60 11 -112 22 -503 48 -493 33 2 -5 -7 -4 -21 2 -14 5 -37 5
-55 0 -18 -5 -31 -5 -33 1 -2 6 -7 7 -11 3z m3288 -2042 c-3 -3 -11 0 -18 7
-9 10 -8 11 6 5 10 -3 15 -9 12 -12z m-381 -4240 c3 -5 -1 -9 -9 -9 -8 0 -12
4 -9 9 3 4 7 8 9 8 2 0 6 -4 9 -8z"/>
<path d="M7565 5720 c3 -5 8 -10 11 -10 2 0 4 5 4 10 0 6 -5 10 -11 10 -5 0
-7 -4 -4 -10z"/>
<path d="M7105 5197 c-50 -17 -90 -75 -86 -127 1 -15 -9 -38 -24 -55 -61 -70
-71 -84 -98 -131 -23 -40 -119 -234 -158 -319 -38 -83 -160 -412 -222 -595
-12 -36 -25 -67 -30 -68 -4 -2 -5 -7 -2 -11 2 -5 -9 -48 -26 -97 -39 -114
-129 -427 -129 -448 0 -12 -10 -16 -35 -16 -52 0 -82 -19 -103 -64 -26 -55
-19 -119 18 -159 15 -15 16 -24 8 -50 -38 -120 1 -248 101 -330 79 -64 276
-157 333 -157 10 0 18 -4 18 -8 0 -4 12 -9 28 -10 15 -1 38 -4 52 -7 63 -14
128 -26 160 -31 19 -3 46 -7 60 -10 14 -2 50 -7 80 -10 30 -3 87 -9 125 -14
73 -8 428 -5 480 3 17 3 55 8 86 12 31 3 66 7 77 10 11 2 36 6 56 9 245 39
515 132 624 214 17 13 32 21 32 16 0 -4 6 -1 13 7 6 8 24 25 38 37 l27 23 38
-18 c54 -27 120 -10 148 38 35 59 27 136 -21 198 -26 34 -28 43 -28 130 0 80
3 94 16 96 23 4 80 56 73 66 -3 5 -1 9 5 9 8 0 24 32 26 52 0 3 3 9 6 13 12
11 -2 80 -19 93 -9 6 -12 12 -7 12 4 0 0 9 -9 19 -15 17 -68 37 -86 34 -3 -1
-22 -4 -44 -7 -21 -4 -42 -9 -47 -12 -5 -3 -9 1 -9 9 0 12 -23 77 -51 142 -4
11 -20 49 -35 85 -28 69 -52 124 -89 205 -13 28 -26 57 -29 65 -7 17 -79 151
-121 225 -41 73 -138 219 -147 223 -4 2 -8 8 -8 13 0 6 -4 15 -10 22 -5 7 -40
50 -77 97 -126 158 -277 292 -416 370 -63 35 -63 35 -72 95 -3 22 -10 42 -15
43 -6 2 -8 8 -5 12 9 15 -70 61 -96 57 -46 -8 -77 -26 -95 -56 -17 -29 -33
-37 -59 -31 -5 1 -24 2 -41 2 -26 -1 -34 4 -44 28 -7 16 -18 34 -26 41 -22 18
-77 26 -109 16z"/>
</g>
</svg>
